HIERARCHY
ROOT Hips
{
	OFFSET 0.000000 0.000000 0.000000
	CHANNELS 6 Xposition Yposition Zposition Xrotation Yrotation Zrotation
	JOINT LeftUpLeg_virtual
	{
		OFFSET 0.000000 0.000000 0.000000
		CHANNELS 3 Xrotation Yrotation Zrotation
		JOINT LeftUpLeg
		{
			OFFSET 13.026900 -6.336304 -1.092800
			CHANNELS 3 Xrotation Yrotation Zrotation
			JOINT LeftLeg
			{
				OFFSET 0.524474 -46.096886 9.782700
				CHANNELS 3 Xrotation Yrotation Zrotation
				JOINT LeftFoot
				{
					OFFSET -0.524474 -53.427422 -12.948200
					CHANNELS 3 Xrotation Yrotation Zrotation
					JOINT LeftToeBase
					{
						OFFSET 0.192200 -14.009700 16.364100
						CHANNELS 3 Xrotation Yrotation Zrotation
						JOINT LeftToe_End
						{
							OFFSET -1.784700 -0.561700 9.474800
							CHANNELS 3 Xrotation Yrotation Zrotation
							End Site
							{
								OFFSET 0 0 0
							}
						}
					}
				}
			}
		}
	}
	JOINT RightUpLeg_virtual
	{
		OFFSET 0.000000 0.000000 0.000000
		CHANNELS 3 Xrotation Yrotation Zrotation
		JOINT RightUpLeg
		{
			OFFSET -12.883000 -6.336304 -1.092800
			CHANNELS 3 Xrotation Yrotation Zrotation
			JOINT RightLeg
			{
				OFFSET -0.524587 -46.096825 9.782800
				CHANNELS 3 Xrotation Yrotation Zrotation
				JOINT RightFoot
				{
					OFFSET 0.524587 -53.427383 -12.948300
					CHANNELS 3 Xrotation Yrotation Zrotation
					JOINT RightToeBase
					{
						OFFSET -0.192200 -14.009700 16.364100
						CHANNELS 3 Xrotation Yrotation Zrotation
						JOINT RightToe_End
						{
							OFFSET 1.784700 -0.561700 9.474800
							CHANNELS 3 Xrotation Yrotation Zrotation
							End Site
							{
								OFFSET 0 0 0
							}
						}
					}
				}
			}
		}
	}
	JOINT Spine_virtual
	{
		OFFSET 0.000000 0.000000 0.000000
		CHANNELS 3 Xrotation Yrotation Zrotation
		JOINT Spine
		{
			OFFSET 0.072000 7.257294 -0.789700
			CHANNELS 3 Xrotation Yrotation Zrotation
			JOINT Spine1
			{
				OFFSET 0.000000 12.508769 -0.658067
				CHANNELS 3 Xrotation Yrotation Zrotation
				JOINT Spine1_split
				{
					OFFSET 0.000000 12.508769 -0.658067
					CHANNELS 3 Xrotation Yrotation Zrotation
					JOINT Spine2
					{
						OFFSET 0.000000 12.508769 -0.658067
						CHANNELS 3 Xrotation Yrotation Zrotation
						JOINT Neck_virtual
						{
							OFFSET 0.000000 0.000000 0.000000
							CHANNELS 3 Xrotation Yrotation Zrotation
							JOINT Neck
							{
								OFFSET 0.000000 14.033295 7.520400
								CHANNELS 3 Xrotation Yrotation Zrotation
								JOINT Head
								{
									OFFSET 0.000000 8.198502 5.703100
									CHANNELS 3 Xrotation Yrotation Zrotation
									JOINT HeadTop_End
									{
										OFFSET 0.000000 17.760803 13.332701
										CHANNELS 3 Xrotation Yrotation Zrotation
										End Site
										{
											OFFSET 0 0 0
										}
									}
								}
							}
						}
						JOINT LeftShoulder_virtual
						{
							OFFSET 0.000000 0.000000 0.000000
							CHANNELS 3 Xrotation Yrotation Zrotation
							JOINT LeftShoulder
							{
								OFFSET 6.292450 5.785301 -0.669000
								CHANNELS 3 Xrotation Yrotation Zrotation
								JOINT LeftShoulder_split
								{
									OFFSET 6.292450 5.785301 -0.669000
									CHANNELS 3 Xrotation Yrotation Zrotation
									JOINT LeftArm
									{
										OFFSET 13.907140 -6.093903 1.965100
										CHANNELS 3 Xrotation Yrotation Zrotation
										JOINT LeftForeArm
										{
											OFFSET 34.140198 0.000000 0.000000
											CHANNELS 3 Xrotation Yrotation Zrotation
											JOINT LeftHand
											{
												OFFSET 40.960209 0.000000 0.000000
												CHANNELS 3 Xrotation Yrotation Zrotation
												End Site
												{
													OFFSET 0 0 0
												}
											}
										}
									}
								}
							}
						}
						JOINT RightShoulder_virtual
						{
							OFFSET 0.000000 0.000000 0.000000
							CHANNELS 3 Xrotation Yrotation Zrotation
							JOINT RightShoulder
							{
								OFFSET -6.292450 5.785301 -0.669000
								CHANNELS 3 Xrotation Yrotation Zrotation
								JOINT RightShoulder_split
								{
									OFFSET -6.292450 5.785301 -0.669000
									CHANNELS 3 Xrotation Yrotation Zrotation
									JOINT RightArm
									{
										OFFSET -13.907140 -6.093903 1.965100
										CHANNELS 3 Xrotation Yrotation Zrotation
										JOINT RightForeArm
										{
											OFFSET -34.140198 0.000000 0.000000
											CHANNELS 3 Xrotation Yrotation Zrotation
											JOINT RightHand
											{
												OFFSET -40.960209 0.000000 0.000000
												CHANNELS 3 Xrotation Yrotation Zrotation
												End Site
												{
													OFFSET 0 0 0
												}
											}
										}
									}
								}
							}
						}
					}
				}
			}
		}
	}
}
MOTION
Frames: 7
Frame Time: 0.03333333
-1.029194 105.422112 2.978645 0.000000 0.000000 0.000000 -29.957449 -54.235448 -10.638553 -20.350182 3.292062 19.739846 44.509116 -12.069846 -1.208787 -1.811109 2.574858 -20.327978 -7.502562 -0.938480 1.052159 0.000000 0.000000 0.000000 -25.760250 -51.531752 -8.007418 -19.864106 2.181745 -22.871505 46.017235 3.573177 -6.592634 -12.029272 -4.886023 17.900883 -6.869234 1.551893 0.374261 0.000000 0.000000 0.000000 -23.996697 -43.327295 -9.578929 13.562110 5.031701 -0.906700 12.200028 2.706181 -6.974316 1.710468 -0.397858 1.628912 0.000000 0.000000 0.000000 10.826440 2.252077 -5.277502 3.674923 -1.334791 0.037320 -17.019745 32.284938 -12.805164 0.000000 0.000000 0.000000 14.161166 1.624502 -4.869184 1.592533 -12.565894 6.547850 -8.076996 -1.404593 -2.635305 -25.860572 28.585930 -60.073180 170.553580 -53.506838 172.982928 0.000000 0.000000 0.000000 12.378873 1.771973 -4.462742 12.865974 27.293344 -0.876916 -6.398133 -3.407821 1.798149 -55.465029 41.408220 53.966988 168.869788 77.645440 -170.544523 0.000000 0.000000 0.000000 
-2.233312 105.134880 -0.208225 0.000000 0.000000 0.000000 -27.043745 -52.741696 -7.682770 -22.347882 3.829862 17.588702 40.362846 -10.616042 -1.334539 0.264594 1.704154 -17.028497 -7.090643 -0.811101 0.560955 0.000000 0.000000 0.000000 -24.043557 -50.227172 -6.060363 -20.450363 2.158031 -23.183568 49.890311 3.547704 -6.818536 -12.816184 -5.453368 16.773932 -5.538821 1.434322 0.462200 0.000000 0.000000 0.000000 -22.302511 -42.662366 -7.597000 14.018296 4.560983 -1.510492 12.677173 2.692299 -7.032802 2.307935 0.411837 1.970834 0.000000 0.000000 0.000000 11.650093 2.042678 -5.438804 4.925468 -0.741994 -0.297132 -16.321775 30.634751 -12.267962 0.000000 0.000000 0.000000 14.850672 1.461896 -5.003704 1.821791 -12.699270 6.240306 -5.578350 -3.102932 -2.372740 -27.774249 26.934433 -58.228326 169.980322 -55.068291 172.309991 0.000000 0.000000 0.000000 12.794158 1.616112 -4.613383 12.599582 26.719719 -0.830563 -6.578364 -2.178691 2.721078 -56.399758 39.974310 54.671559 172.688438 75.404974 -174.188265 0.000000 0.000000 0.000000 
-3.293039 105.066650 -4.624252 0.000000 0.000000 0.000000 -21.632859 -48.744946 -2.650450 -25.995780 3.231119 15.371539 33.836692 -10.418068 -1.347500 7.752390 -1.734716 -17.466585 -6.547309 -0.858310 0.648461 0.000000 0.000000 0.000000 -20.433288 -46.607268 -2.212072 -21.298622 1.572012 -23.108099 54.630360 2.270381 -6.497907 -14.557881 -7.368846 13.656465 -4.857676 1.189498 0.834017 0.000000 0.000000 0.000000 -18.649620 -39.720388 -3.653575 16.586500 4.237150 -2.385090 13.203895 2.857875 -7.132748 2.898455 0.625275 2.640700 0.000000 0.000000 0.000000 12.433188 2.089608 -5.794309 3.950649 -0.532705 -1.123030 -17.385867 26.999490 -9.793729 0.000000 0.000000 0.000000 15.334589 1.596632 -5.272365 1.956716 -13.623851 4.771956 -4.303944 -4.762606 -1.449625 -30.009966 21.325673 -54.060387 169.994201 -56.393535 172.800917 0.000000 0.000000 0.000000 13.399822 1.682024 -5.012144 12.330221 25.663492 -1.441374 -7.373169 -1.736180 3.847695 -57.457191 36.347542 53.590050 177.018655 72.966515 -178.328057 0.000000 0.000000 0.000000 
-4.080331 105.531181 -9.654827 0.000000 0.000000 0.000000 -15.774390 -42.805970 2.438437 -30.904318 1.621575 13.699674 26.582290 -10.777217 -1.485393 18.288047 -6.568985 -19.620106 -6.913757 -1.019637 1.541822 0.000000 0.000000 0.000000 -16.156075 -41.265271 2.091739 -22.433442 0.467836 -22.612053 58.146015 0.375796 -5.706554 -16.491123 -9.612094 9.622881 -5.012926 0.924059 1.305288 0.000000 0.000000 0.000000 -14.043286 -35.184377 0.840237 21.000508 3.967696 -3.224563 13.735062 3.110684 -7.139534 2.679109 0.253883 3.553319 0.000000 0.000000 0.000000 13.159764 2.350543 -6.098371 1.052988 -0.597607 -2.391198 -19.513207 21.842873 -6.257607 0.000000 0.000000 0.000000 15.571402 1.925255 -5.521924 2.048892 -15.154288 2.858658 -4.318084 -5.542573 -0.651642 -32.560639 13.136192 -48.568765 170.734908 -57.303422 174.407173 0.000000 0.000000 0.000000 14.088116 1.917050 -5.434180 12.185635 24.597316 -3.011643 -8.661239 -2.031997 4.893818 -58.598829 31.584000 50.143024 -179.316986 71.516684 178.244756 0.000000 0.000000 0.000000 
-4.698981 106.372169 -15.495686 0.000000 0.000000 0.000000 -10.613686 -35.881975 6.539322 -37.022252 -0.610908 12.395056 20.498885 -10.588703 -1.784207 28.644628 -10.728195 -20.806296 -7.374244 -1.146786 2.669291 0.000000 0.000000 0.000000 -11.961814 -34.945707 5.851721 -23.730237 -0.796594 -21.961698 59.055318 -1.361341 -4.726190 -17.795341 -10.936652 6.419319 -5.387707 0.767686 1.606115 0.000000 0.000000 0.000000 -9.640513 -29.713584 4.785889 26.937182 3.682670 -3.745078 14.201932 3.330992 -6.920688 2.458129 0.795576 3.720959 0.000000 0.000000 0.000000 13.861854 2.672745 -6.104306 -2.964330 -0.869832 -3.827461 -21.870044 15.998318 -2.687458 0.000000 0.000000 0.000000 15.609525 2.310293 -5.545937 2.144755 -17.018081 1.328441 -4.817029 -5.371277 -0.210696 -35.998218 4.086414 -42.808665 172.124865 -58.430725 176.906640 0.000000 0.000000 0.000000 14.781506 2.163462 -5.669046 12.175972 23.813572 -5.737572 -9.679916 -2.447546 5.382607 -60.582794 26.285015 44.140661 -175.882262 72.393523 175.012601 0.000000 0.000000 0.000000 
-5.401161 107.036316 -21.317303 0.000000 0.000000 0.000000 -6.817667 -28.908345 9.281568 -43.853776 -2.637119 11.098035 16.842552 -9.072504 -2.232525 35.834632 -12.031781 -20.132913 -6.189814 -1.109053 3.030173 0.000000 0.000000 0.000000 -8.502730 -28.707500 8.544191 -25.275947 -2.094089 -21.547386 57.199153 -2.534442 -3.789155 -17.624057 -11.041009 5.353123 -5.635048 0.772910 1.555768 0.000000 0.000000 0.000000 -6.274549 -24.485031 7.691760 33.817517 3.403118 -3.781286 14.526542 3.393784 -6.420576 2.532425 1.272687 3.757860 0.000000 0.000000 0.000000 14.496866 2.915613 -5.710744 -7.089470 -1.192692 -5.235447 -23.710020 10.476681 0.305934 0.000000 0.000000 0.000000 15.567065 2.594229 -5.236485 2.400511 -18.823293 1.013690 -5.276788 -4.659332 -0.087280 -41.939615 -4.503917 -38.147143 174.125551 -61.063544 -179.939093 0.000000 0.000000 0.000000 15.387574 2.336783 -5.570529 12.294501 23.410829 -9.591018 -10.495288 -2.714293 5.101243 -64.190207 21.612983 35.939865 -171.202216 76.394689 170.438915 0.000000 0.000000 0.000000 
-6.436634 107.085114 -26.654362 0.000000 0.000000 0.000000 -4.405279 -21.993353 11.026377 -50.753247 -3.402869 9.714603 15.980447 -5.705845 -2.741974 37.842526 -9.750257 -17.587247 -3.359298 -0.919729 2.452719 0.000000 0.000000 0.000000 -5.989458 -22.937556 10.341194 -27.077368 -3.294343 -21.499515 53.653089 -3.049310 -3.088889 -16.461984 -10.200502 6.391144 -5.609284 0.923258 1.060054 0.000000 0.000000 0.000000 -4.087179 -19.641411 9.606513 41.001025 3.240373 -3.277294 14.628674 3.296385 -5.671080 2.447160 1.874111 3.255747 0.000000 0.000000 0.000000 14.972082 3.013459 -4.969994 -10.283793 -1.421195 -6.132210 -24.478580 5.657152 2.445935 0.000000 0.000000 0.000000 15.549108 2.719670 -4.630675 2.870549 -20.125596 2.139695 -5.015484 -3.793906 -0.185375 -51.336282 -12.300676 -35.893453 176.687582 -65.859286 -176.458757 0.000000 0.000000 0.000000 15.745307 2.348437 -5.119996 12.589983 23.252841 -14.208578 -11.135286 -2.591342 4.117009 -69.562082 18.317673 26.824011 -158.370681 82.972503 157.467430 0.000000 0.000000 0.000000 
